<?xml version="1.0" standalone="no"?>
<!DOCTYPE svg PUBLIC "-//W3C//DTD SVG 20010904//EN"
 "http://www.w3.org/TR/2001/REC-SVG-20010904/DTD/svg10.dtd">
<svg version="1.0" xmlns="http://www.w3.org/2000/svg"
 width="1000.000000pt" height="1000.000000pt" viewBox="0 0 1000.000000 1000.000000"
 preserveAspectRatio="xMidYMid meet">
<metadata>
Created by potrace 1.14, written by Peter Selinger 2001-2017
</metadata>
<g transform="translate(0.000000,1000.000000) scale(0.100000,-0.100000)"
fill="#000000" stroke="none">
<path d="M0 5000 l0 -5000 5000 0 5000 0 0 5000 0 5000 -5000 0 -5000 0 0
-5000z m3970 788 l0 -783 1045 -3 1045 -2 0 785 0 785 525 0 525 0 0 -2360 0
-2360 -525 0 -525 0 0 1310 0 1310 -1045 0 -1045 0 0 -1310 0 -1310 -1050 0
-1050 0 0 260 0 260 523 2 522 3 3 2098 2 2097 525 0 525 0 0 -782z"/>
</g>
</svg>
